<svg width="97" height="160" viewBox="0 0 97 160" fill="none" xmlns="http://www.w3.org/2000/svg">
<g filter="url(#filter0_f)">
<path fill-rule="evenodd" clip-rule="evenodd" d="M65.7945 7.52532L12.4121 34.8398C10.3744 35.8823 7.8669 35.8828 5.82809 34.8408L1.58924 32.3528C-0.305307 31.3842 -0.622182 29.1989 1.27236 28.2299L54.2165 1.05308C56.2559 0.0101411 59.1524 -0.456266 61.1912 0.587667L65.795 3.15739C67.6884 4.12693 67.6879 6.55628 65.7945 7.52532Z" transform="translate(82.9873 109.287) scale(-0.999998 1) rotate(-2.80101)" fill="#BEBEBE" fill-opacity="0.6"/>
</g>
<path d="M17.5651 3.01889L68.0862 31.7476C77.7716 37.2551 85.6513 48.457 85.6513 56.7182V99.8099C85.6513 108.071 77.7716 110.311 68.0862 104.804L17.5651 76.0749C7.87974 70.5673 0 59.3655 0 51.1043V8.01261C0 -0.248561 7.87974 -2.48866 17.5651 3.01889Z" transform="translate(10.8174 0.00708008)" fill="#08AAA2"/>
<path d="M1.88937 5.07401L11.3361 0C16.6893 6.34251 20.1531 10.766 20.1531 17.0348V61.5223C20.1531 67.7911 7.33524 72.6786 0 68.4991L4.72321 26.3214C4.09363 15.222 1.88937 11.3428 1.88937 5.07401Z" transform="translate(76.3152 38.6893)" fill="#077C77"/>
<path d="M0 13.9535C6.35901 13.3698 17.3192 8.24526 17.0043 0L0 5.07401V13.9535Z" transform="translate(79.4644 99.5774)" fill="#077C77"/>
<path d="M8.81674 2.54418C6.92737 3.81268 3.00188e-05 7.30106 0 14.5949L18.8934 9.52091L27.7104 3.81265C24.8764 1.90989 20.1153 -0.136719 15.7447 0.00717415C13.5402 0.00717415 10.7061 1.27568 8.81674 2.54418Z" transform="translate(2.00049)" fill="#0AE8DD"/>
<path d="M9.44684 0L0 5.07401C2.11256 7.29272 3.28648 8.71913 5.35321 11.7336L14.8 6.97676C12.7925 3.96535 11.966 2.537 9.44684 0Z" transform="translate(78.2048 38.6893)" fill="#08C8BF"/>
<path d="M8.50215 0L0 5.70826L6.61278 9.51376L14.8 3.48838L8.50215 0Z" transform="translate(19.9489 3.17126)" fill="#08C8BF"/>
<path d="M68.0862 31.7476L17.5651 3.01889C7.87974 -2.48866 0 -0.248561 0 8.01261V51.1043C0 59.3655 7.87974 70.5673 17.5651 76.0749L68.0862 104.804C77.7716 110.311 85.6513 108.071 85.6513 99.8099V56.7182C85.6513 48.457 77.7716 37.2551 68.0862 31.7476ZM26.3729 64.3198C25.5991 65.0227 24.1903 64.8615 22.7437 64.0391C22.0345 63.6358 21.3165 63.074 20.6598 62.3767C18.6626 60.2578 17.9758 57.6813 19.129 56.6334L19.9513 55.8862L29.6097 61.3781L26.3729 64.3198ZM18.4853 52.1986C16.1793 50.8871 14.303 48.2203 14.303 46.2533C14.303 44.2863 16.1793 43.753 18.4853 45.0641L26.7122 49.7423L37.9965 39.4883L34.9381 33.2312C33.7852 30.8722 34.4717 29.0767 36.4689 29.2287C38.4659 29.381 41.0291 31.4245 42.182 33.7831L42.8256 35.1001L43.4693 34.5154C44.623 33.4679 47.1857 34.3396 49.1821 36.4582C50.1497 37.4849 50.8418 38.6477 51.1307 39.7323C51.4201 40.8173 51.2716 41.6943 50.713 42.2019L36.3706 55.2346L45.4174 60.3789L50.2465 70.2598L18.4853 52.1986ZM67.166 79.8807L63.7683 77.9488L66.5224 83.5835C67.6755 85.9425 66.9888 87.7379 64.9918 87.586C64.3471 87.537 63.6319 87.2923 62.9073 86.8801C62.5438 86.6735 62.1785 86.4252 61.818 86.1378C60.7389 85.2773 59.8369 84.1742 59.2784 83.0313L44.7571 53.3209L49.5863 48.9324L58.9391 68.0683L67.166 72.7465C69.4721 74.0579 71.3483 76.7248 71.3483 78.6918C71.3483 80.6587 69.4721 81.1921 67.166 79.8807Z" transform="translate(2 5.7157)" fill="#DEE7FF"/>
<defs>
<filter id="filter0_f" x="0.589233" y="91.4174" width="95.9297" height="68.0119" filterUnits="userSpaceOnUse" color-interpolation-filters="sRGB">
<feFlood flood-opacity="0" result="BackgroundImageFix"/>
<feBlend mode="normal" in="SourceGraphic" in2="BackgroundImageFix" result="shape"/>
<feGaussianBlur stdDeviation="7.5" result="effect1_foregroundBlur"/>
</filter>
</defs>
</svg>
