<svg width="117" height="176" viewBox="0 0 117 176" fill="none" xmlns="http://www.w3.org/2000/svg">
<g filter="url(#filter0_f)">
<path d="M61.9587 0L0 38.0487L15.9339 47.8581L77.5837 10.798L61.9587 0Z" transform="translate(92.4204 111.211) scale(-1 1) rotate(3.71879)" fill="#C4C4C4"/>
</g>
<path d="M45.5443 6.67548C20.4305 -5.58687 0 -0.475038 0 18.0683C0 45.6983 41.0102 92.7003 42.757 94.6885C43.5544 95.594 44.5479 96.3392 45.5443 96.8257C46.5399 97.3121 47.5356 97.5381 48.3308 97.4099C50.0777 97.1278 91.0885 90.1744 91.0885 62.5436C91.0885 44.0002 70.6573 18.9378 45.5443 6.67548Z" transform="translate(25.2598 0.719238)" fill="#08AAA2"/>
<path d="M3.99511 74.282C3.19987 74.4102 0.995654 74.1489 0 73.6625L3.23691 59.1061L25.5687 48.7226L28.3653 30.3518L10.7868 25.1545L14.7819 7.18858L23.6937 0C36.7878 12.3071 45.5443 27.2407 45.5443 39.3804C45.5443 46.3567 44.5752 53.1156 41.5491 57.5087C35.7159 65.9769 23.1716 70.6877 14.3824 75.0808C11.6456 75.7162 9.61136 75.0316 7.63616 74.562L3.99511 74.282Z" transform="translate(70.804 23.8824)" fill="#077C77"/>
<path d="M0 17.5721C3.13841 8.5117 11.5888 2.80895 20.3751 0L10.7868 7.58795L14.7819 17.5721H0Z" transform="translate(18.0686 1.51807)" fill="#0AE8DD"/>
<path d="M17.179 7.18858L8.38973 14.3772C5.01448 11.2056 3.19416 9.69292 0 7.18858L8.78924 0C12.459 2.91341 14.304 4.48952 17.179 7.18858Z" transform="translate(77.196 16.694)" fill="#08C8BF"/>
<path d="M72.1355 51.3824L61.894 53.7672L64.3117 65.3772C64.5832 66.677 63.9329 67.5409 62.6317 67.601C61.8983 67.6371 61.0291 67.4111 60.1557 66.9847C59.4834 66.657 58.8083 66.2082 58.19 65.6657L45.5443 54.5726L32.9006 53.3176C31.4786 53.1766 29.7574 52.2462 28.4561 50.9144C27.157 49.5849 26.5067 48.0856 26.7761 47.0494L29.1952 37.801L18.9544 25.416C17.8081 24.0272 17.3952 22.5904 17.8926 21.7073C18.388 20.8234 19.7084 20.6471 21.2939 21.2505L35.4335 26.6341L41.7606 20.2376C42.472 19.5212 43.9374 19.5621 45.5443 20.3466C47.1504 21.1303 48.6179 22.5223 49.3272 23.9327L55.6543 36.5068L69.7939 44.9314C71.3815 45.8786 72.7012 47.3435 73.1973 48.7106C73.6933 50.0786 73.2811 51.1131 72.1355 51.3824ZM45.5443 6.67548C20.4305 -5.58687 0 -0.475038 0 18.0683C0 45.6983 41.0102 92.7003 42.757 94.6885C43.5544 95.594 44.5479 96.3392 45.5443 96.8257C46.5399 97.3121 47.5356 97.5381 48.3308 97.4099C50.0777 97.1278 91.0885 90.1744 91.0885 62.5436C91.0885 44.0002 70.6573 18.9378 45.5443 6.67548Z" transform="translate(16.4705 7.90784)" fill="#F0F4FF"/>
<defs>
<filter id="filter0_f" x="0.700439" y="100.229" width="109.188" height="74.7722" filterUnits="userSpaceOnUse" color-interpolation-filters="sRGB">
<feFlood flood-opacity="0" result="BackgroundImageFix"/>
<feBlend mode="normal" in="SourceGraphic" in2="BackgroundImageFix" result="shape"/>
<feGaussianBlur stdDeviation="7.5" result="effect1_foregroundBlur"/>
</filter>
</defs>
</svg>
