<svg width="89" height="194" viewBox="0 0 89 194" fill="none" xmlns="http://www.w3.org/2000/svg">
<g filter="url(#filter0_f)">
<path d="M48.7306 4.85508C59.9288 11.3276 59.9889 21.8223 48.8622 28.2955C37.7355 34.7686 19.6373 34.768 8.43876 28.2957C-2.76061 21.8229 -2.82046 11.3279 8.3057 4.8548C19.433 -1.61859 37.5312 -1.61804 48.7306 4.85508Z" transform="translate(15.8909 145.061)" fill="#D8D8DA"/>
</g>
<path d="M64.8832 6.46385C49.9712 -2.15508 25.8739 -2.15425 11.0599 6.46413C-3.75442 15.0828 -3.67675 29.0562 11.2352 37.6752C18.6894 41.9835 28.4393 44.1382 38.1775 44.1388C28.4354 44.1396 18.6805 41.9852 11.2235 37.6752C4.68715 33.8971 1.00153 29.0902 0.170319 24.1568L4.27822 62.0093C4.30606 67.0218 7.63202 72.0344 14.2486 75.8587C27.482 83.5073 48.8689 83.5073 62.016 75.8584C68.5894 72.0341 71.8589 67.0215 71.8308 62.0093L75.9067 24.4519C77.0652 18.0384 73.3888 11.38 64.8832 6.46385Z" transform="translate(7.40454 38.7354)" fill="#077C77"/>
<path d="M82.9025 31.3983C82.9025 31.4387 82.9003 31.4785 82.8997 31.5195C82.8986 31.5565 82.898 31.5933 82.8972 31.6301C82.9646 28.1511 81.7358 24.6635 79.2157 21.4305C78.9853 15.9832 75.2721 10.5708 68.0801 6.414C53.2831 -2.13833 29.3717 -2.13777 14.6721 6.41428C7.59231 10.5331 3.9415 15.8846 3.71101 21.2814C1.24688 24.4291 0.0159241 27.8237 0.0203781 31.2199C0.0203781 31.2001 0.0192652 31.1806 0.0192652 31.1608L5.76096e-05 37.9792C-0.00105587 38.3663 0.0139748 38.7528 0.0448739 39.1396C0.230547 41.4591 0.992166 43.7665 2.32973 45.9842C2.36425 46.0416 2.40183 46.0985 2.43718 46.1553L10.9962 125.023C11.0213 129.542 14.0202 134.062 19.9862 137.51C31.9182 144.407 51.2017 144.407 63.0564 137.51C68.9834 134.062 71.9314 129.542 71.906 125.023L80.4503 46.2961C80.7137 45.8708 80.9578 45.4425 81.1783 45.0108C81.2726 44.8266 81.3625 44.6413 81.4491 44.4557C82.3995 42.4152 82.8771 40.3162 82.8833 38.2155L82.9025 31.3971V31.3983Z" transform="translate(4.00073)" fill="#F0F4FF"/>
<path d="M0 16.0518V96.9052C11.2957 97.2025 29.4283 92.7436 31.5091 80.2589L40.1295 0C29.4283 12.782 20.8079 14.8628 0 16.0518Z" transform="translate(44.4275 45.7773)" fill="#E3E7F2"/>
<path d="M61.8457 51.7016C68.4191 47.8773 71.6886 42.8648 71.6605 37.8525L75.7542 0.133211C74.9349 5.02037 71.3117 9.7746 64.8769 13.5181C57.1785 17.9968 46.9731 20.1481 36.8527 19.9721V57.4272C45.8744 57.6029 54.9827 55.6944 61.8457 51.7016Z" transform="translate(7.57471 62.8918)" fill="#08AAA2"/>
<path d="M11.0532 13.5184C4.51683 9.74061 0.831212 4.93342 0 0L4.1079 37.8525C4.13574 42.865 7.4617 47.8776 14.0783 51.7019C20.4037 55.3578 28.5919 57.2662 36.8527 57.4272V19.9721C27.4978 19.8094 18.2156 17.6581 11.0532 13.5184Z" transform="translate(7.57471 62.8918)" fill="#08AAA2"/>
<path d="M23.7804 17.2408C14.7344 20.683 9.46144 21.1916 0 21.6996V59.1538C10.9984 58.8565 17.2408 57.9648 26.753 52.3169C31.173 48.8114 33.5028 46.787 34.4816 41.913L34.5232 41.5296C36.1726 26.3373 37.1102 17.7016 39.2377 0C38.3478 6.10271 35.959 11.3711 23.7804 17.2408Z" transform="translate(44.4275 61.2346)" fill="#077C77"/>
<path d="M82.8969 24.3815C83.0185 18.1152 78.9418 11.8199 70.6695 7.03862C54.4325 -2.34639 28.1931 -2.34611 12.0615 7.0389C4.02222 11.7159 0.0120256 17.8415 0.0203767 23.9716C0.0203767 23.9518 0.0192639 23.932 0.0192639 23.9123L5.62857e-05 30.7306C-0.017481 36.9201 4.06314 43.1192 12.2341 47.842C28.47 57.2262 54.7092 57.2262 70.8399 47.8417C78.8539 43.1792 82.8654 37.0778 82.883 30.9672L82.9022 24.1488C82.9022 24.2266 82.8983 24.3041 82.8969 24.3815Z" transform="translate(4.00073 7.24854)" fill="#E0E0E2"/>
<path d="M82.9022 0.236597L82.883 7.055C82.8654 13.1656 78.8541 19.2669 70.8399 23.9295C54.7092 33.3139 28.47 33.3139 12.2341 23.9297C4.06342 19.207 -0.017481 13.0078 5.62819e-05 6.8184L0.0192639 0C0.00172657 6.18942 4.08235 12.3886 12.2533 17.1113C28.4893 26.4955 54.7284 26.4955 70.8591 17.1111C78.8731 12.4485 82.8846 6.34715 82.9022 0.236597Z" transform="translate(4.00098 31.1611)" fill="#D8D8DA"/>
<path d="M39.3566 13.4747C33.4825 22.5556 20.5278 28.6567 0 29V22.2626C0 22.2626 6.16783 22.5556 13.5105 21.2536C23.8256 18.7919 28.3839 17.0095 33.7762 12.8889C35.1825 11.8496 35.929 11.2365 37.007 9.9596C40.231 6.4461 41.1433 4.21204 42 0C42 5.56566 42 6.44444 41.7063 8.20202C40.9482 11.8114 40.5892 11.7561 39.3566 13.4747Z" transform="translate(45 33)" fill="#C8C8C8"/>
<path d="M56.2551 5.60451C69.1831 13.0767 69.2513 25.1919 56.4063 32.6649C43.5623 40.1371 22.6692 40.1374 9.74145 32.6652C-3.18743 25.1925 -3.25536 13.0772 9.58835 5.60479C22.4332 -1.86822 43.3262 -1.86822 56.2551 5.60451Z" transform="translate(12.4636 12.1449)" fill="#C6C5CB"/>
<path d="M58.5982 17.0672L58.5748 25.2495C58.5874 20.8754 55.7035 16.4943 49.929 13.1566C38.4546 6.52432 19.9101 6.5246 8.5106 13.1568C2.84717 16.4516 0.0122483 20.7636 0 25.082L0.023383 16.8998C0.0356312 12.5814 2.87083 8.2694 8.53398 4.97432C19.9341 -1.65792 38.4779 -1.6582 49.9523 4.97404C55.7268 8.31204 58.6108 12.6931 58.5982 17.0672Z" transform="translate(16.1526 4.91565)" fill="#C6C5CB"/>
<path d="M0 17.2086L0.023383 9.02636C0.0325692 5.75775 2.1788 2.49416 6.46542 0L6.44203 8.18224C2.15542 10.6764 0.0091862 13.94 0 17.2086Z" transform="translate(23.2727 14.4512)" fill="#898890"/>
<path d="M31.4744 18.1787L31.4513 26.3604L0 8.18197L0.0231069 0L31.4744 18.1787Z" transform="translate(29.7148 14.4513)" fill="#ACABB1"/>
<path d="M48.7306 4.85508C59.9288 11.3276 59.9889 21.8223 48.8622 28.2955C37.7355 34.7686 19.6373 34.768 8.43876 28.2957C-2.76061 21.8229 -2.82046 11.3279 8.3057 4.8548C19.433 -1.61859 37.5312 -1.61804 48.7306 4.85508ZM12.9612 25.665C21.646 30.6846 35.6809 30.6846 44.31 25.6642L12.8587 7.48579C4.22953 12.5062 4.27519 20.6449 12.9612 25.665Z" transform="translate(16.8792 6.96558)" fill="#D8D8DA"/>
<path d="M75.5535 0.215697L75.5301 8.39794C75.5145 13.9665 71.8587 19.5264 64.5562 23.7748C49.8566 32.3268 25.9441 32.3271 11.1485 23.7751C3.70293 19.4715 -0.0155399 13.8224 4.88092e-05 8.18224L0.0234318 0C0.00756469 5.64043 3.72603 11.2895 11.1719 15.5928C25.9678 24.1446 49.88 24.1446 64.5796 15.5926C71.8826 11.3441 75.5379 5.78395 75.5535 0.215697Z" transform="translate(7.6748 21.7914)" fill="#D8D8DA"/>
<path d="M0 21V29.5C7.79685 29.4889 12.6394 28.7444 22.5 25.5C28.9322 22.4492 31.4743 20.6985 34 17.5C36.5413 14.2929 37.7866 12.5219 38 9C38.3224 5.11939 38.5 2.5 38.5 0C35.9811 8.05341 33.3058 12.3115 22 17.5C13.692 20.5366 8.80924 20.5701 0 21Z" transform="translate(45 22.5)" fill="#C8C8C8"/>
<path d="M64.3818 6.41411C79.1777 14.9662 79.2554 28.8323 64.5561 37.3841C49.8565 45.9361 25.9439 45.9364 11.1483 37.3843C-3.64843 28.832 -3.72526 14.9662 10.9743 6.41438C25.6737 -2.13766 49.5851 -2.1385 64.3818 6.41411ZM17.123 33.9081C28.5974 40.5404 47.1418 40.5404 58.5416 33.9078C69.9417 27.2756 69.881 16.5223 58.4063 9.89033C46.9319 3.25809 28.3875 3.25809 16.988 9.8906C5.58788 16.5226 5.64856 27.2759 17.123 33.9081Z" transform="translate(7.69922 0.00012207)" fill="#E0E0E2"/>
<path d="M11.963 5.30464C11.8642 5.24751 11.7534 5.19539 11.6309 5.14941C10.0693 4.56391 8.58778 3.8753 7.21792 3.08302C5.84695 2.29074 4.65441 1.43381 3.63948 0.530057C3.55986 0.458994 3.46939 0.394897 3.37085 0.337769C2.61368 -0.0997548 1.3613 -0.124 0.573235 0.334146C-0.085945 0.717606 -0.187273 1.31648 0.324649 1.77212C1.48879 2.80991 2.85726 3.79365 4.432 4.70381C6.0059 5.61341 7.70618 6.40374 9.5 7.07563C10.2867 7.37103 11.32 7.31 11.9789 6.92682C12.7658 6.46867 12.7199 5.74244 11.963 5.30464Z" transform="translate(16.1536 31.6593)" fill="#C6C5CB"/>
<defs>
<filter id="filter0_f" x="0.890869" y="130.061" width="87.1684" height="63.1501" filterUnits="userSpaceOnUse" color-interpolation-filters="sRGB">
<feFlood flood-opacity="0" result="BackgroundImageFix"/>
<feBlend mode="normal" in="SourceGraphic" in2="BackgroundImageFix" result="shape"/>
<feGaussianBlur stdDeviation="7.5" result="effect1_foregroundBlur"/>
</filter>
</defs>
</svg>
