<svg width="158" height="206" viewBox="0 0 158 206" fill="none" xmlns="http://www.w3.org/2000/svg">
<g filter="url(#filter0_f)">
<path d="M63.9285 0L0 44.2871L63.9285 82.8109L127.857 44.2871L63.9285 0Z" transform="translate(143 107.531) scale(-1 1)" fill="#C4C4C4"/>
</g>
<path d="M0.0419871 34.9689L60.6685 0L121.295 34.9689L121.337 34.9446V81.6665L60.6685 116.708L0 81.6665V34.9446L0.0419871 34.9689Z" transform="translate(139.495 31.6102) scale(-1 1)" fill="#ED7064"/>
<path d="M0 46.722L60.6685 81.7633V35.0416L0 0V46.722Z" transform="translate(139.495 66.5548) scale(-1 1)" fill="#077872"/>
<path d="M0 35.0416L60.6685 0V46.722L0 81.7633V35.0416Z" transform="translate(78.8267 66.5548) scale(-1 1)" fill="#08AAA2"/>
<path d="M0.044014 36.8481L63.9285 0L127.813 36.8481L127.857 36.8226V52.9875L63.9285 89.9118L0 52.9875V36.8226L0.044014 36.8481Z" transform="translate(142.755 11.7402) scale(-1 1)" fill="#08AAA2"/>
<path d="M0 16.1649L63.9285 53.0892V36.9243L0 0V16.1649Z" transform="translate(142.755 48.5629) scale(-1 1)" fill="#08524E"/>
<path d="M0 36.9243L63.9285 0V16.1649L0 53.0892V36.9243Z" transform="translate(78.8267 48.5629) scale(-1 1)" fill="#2FBEB7"/>
<path d="M15.8821 108.913L0 99.7396V36.8559L63.81 0L79.6843 9.15633L15.8821 46.0076V108.913Z" transform="translate(120.429 24.5492) scale(-1 1)" fill="#96A8D9"/>
<path d="M63.8022 108.913L79.6843 99.7396V36.8559L15.8745 0L0 9.15633L63.8022 46.0076V108.913Z" transform="translate(116.59 24.3617) scale(-1 1)" fill="#B1C5FF"/>
<path d="M63.8022 46.0076L79.6843 36.8559L15.8745 0L0 9.15633L63.8022 46.0076Z" transform="translate(116.59 24.3617) scale(-1 1)" fill="#CFDBFF"/>
<path d="M15.8821 46.0076L0 36.8559L63.81 0L79.6843 9.15633L15.8821 46.0076Z" transform="translate(120.429 24.5492) scale(-1 1)" fill="#CFDBFF"/>
<path d="M72.5028 27.0707L68.8183 18.0233L84.3526 13.0827L11.8412 0L0 13.9894L72.5028 27.0707Z" transform="translate(85.3162 32.3031) scale(-1 1)" fill="#B1C5FF"/>
<path d="M16.8816 73.1313L9.34977 66.9132L0 80.2714L9.15866 7.13144L26.0392 0L16.8816 73.1313Z" transform="translate(96.3191 33.0859) scale(-1 1)" fill="#B1C5FF"/>
<path d="M1.14332 38.996C0.0397891 37.6304 -0.289445 35.8014 0.263046 34.1348C3.02231 25.8093 10.8383 4.49118 23.8615 0.542204C36.0307 -3.14779 51.3473 12.6655 41.6422 27.6807C33.9143 39.6368 15.5906 43.1611 8.44499 44.1008C6.6633 44.3352 4.89087 43.6336 3.76099 42.2355L1.14332 38.996Z" transform="translate(74.4976) scale(-1 1)" fill="#CFDBFF"/>
<path d="M25.2559 1.16572C30.9907 -1.97358 34.0129 1.60546 32.0546 7.39595C30.096 13.1867 20.0744 18.7064 14.123 21.6191C8.17153 24.5319 0 25.5835 0 25.5835C0 25.5835 19.521 4.30503 25.2559 1.16572Z" transform="translate(66.7422 16.5245) scale(-1 1)" fill="#E1E5EF"/>
<path d="M24.077 23.5C18.9249 21.1355 16.0954 19.4718 11.2551 15.3222C8.96728 12.8723 6.53509 10.8034 4 7.5C2.47084 5.39285 2.5439 2.54972 3.00002 0C0.900239 0.540566 0.283126 1.57795 0 4.5C0.785976 9.68653 3.13615 11.867 8 15.5C15.137 20.4353 18.3885 21.5809 23 23.5H24.077Z" transform="translate(34 16.5)" fill="#CACED8"/>
<path d="M4.49949 12.0466C6.48272 10.4797 8.74655 9.64624 11.0153 9.46751C14.0363 9.2291 16.7203 7.67929 18.4371 5.18105C19.7266 3.30448 21.5804 1.7596 23.929 0.824785C28.893 -1.15115 34.7136 0.518588 37.8942 4.81286C42.2394 10.6795 40.4215 18.8307 34.2868 22.3741C32.6302 23.3309 30.8412 23.8445 29.0543 23.954C26.1506 24.1319 23.5639 25.6258 21.958 28.0528C20.97 29.5461 19.6307 30.8389 17.9741 31.7958C11.8391 35.3392 3.87345 32.8383 0.967953 26.1397C-1.15861 21.2365 0.306875 15.3591 4.49949 12.0466Z" transform="translate(97.3328 26.1311) scale(-1 1)" fill="#A4BCFF"/>
<path d="M46.2357 2.42408C45.3041 0.935976 43.6823 0.0292679 41.9272 0.00956944C33.1601 -0.0889231 10.4671 0.368776 2.49744 11.4037C-4.9496 21.715 5.01376 41.3492 22.3636 37.0535C36.1788 33.6329 45.4718 17.4456 48.6848 10.9921C49.486 9.38287 49.3995 7.47791 48.4456 5.95417L46.2357 2.42408Z" transform="translate(134.545 42.8304) scale(-1 1)" fill="#CFDCFF"/>
<path d="M2.57285 15.9471C-2.26028 20.3506 0.139349 24.3743 6.24975 24.4056C12.3604 24.4369 20.8383 16.7524 25.5278 12.0703C30.2174 7.38781 33.8699 0 33.8699 0C33.8699 0 7.40628 11.5433 2.57285 15.9471Z" transform="translate(121.389 52.522) scale(-1 1)" fill="#E1E5EF"/>
<path d="M19.5 21.5C7 12 3.70055 7.89532 0 0C10.0244 9.83733 20 16.5 32 20C34.4694 20.7202 34.6423 21.0601 33.5 22.5C31.0401 24.9175 26 25.5 19.5 21.5Z" transform="translate(87.5 52.5)" fill="#CACED8"/>
<path d="M7.69834 0.28065C6.07925 -0.0576113 5.03551 -0.127844 2.5661 0.28065C0.899755 0.787179 0.277895 0.949731 0 1.97817C0 2.22068 0.0868812 2.42775 0.530398 2.58756C4.59156 3.24702 6.89422 3.19521 9.89787 1.84602C10.0295 1.65391 10.0385 1.52632 9.89788 1.25065C9.5313 0.765644 9.17351 0.604565 7.69834 0.28065Z" transform="translate(41 1)" fill="#97B3FF"/>
<path d="M8.30586 5.14079C8.8033 4.8485 8.99694 4.62678 8.86119 3.90492C8.44434 1.91156 6.50571 0.878685 1.90338 0.0345313C-0.205208 -0.184279 -0.59666 0.66748 0.90338 1.72122L4.77551 3.69894L7.19519 4.93481C7.58645 5.13091 7.81539 5.2148 8.30586 5.14079Z" transform="translate(115.097 46.8325)" fill="#97B3FF"/>
<defs>
<filter id="filter0_f" x="0.143066" y="92.5306" width="157.857" height="112.811" filterUnits="userSpaceOnUse" color-interpolation-filters="sRGB">
<feFlood flood-opacity="0" result="BackgroundImageFix"/>
<feBlend mode="normal" in="SourceGraphic" in2="BackgroundImageFix" result="shape"/>
<feGaussianBlur stdDeviation="7.5" result="effect1_foregroundBlur"/>
</filter>
</defs>
</svg>
