<svg width="123" height="159" viewBox="0 0 123 159" fill="none" xmlns="http://www.w3.org/2000/svg">
<g filter="url(#filter0_f)">
<path d="M64.2487 0L0 39.5515L16.5229 49.7484L80.4513 11.2245L64.2487 0Z" transform="translate(96.3008 94.2517) scale(-1 1)" fill="#C4C4C4"/>
</g>
<path d="M4.31539 5.56193L7.39781 0H1.23297L0 4.63494L4.31539 5.56193Z" transform="translate(109.555 67.0538)" fill="#D62685"/>
<path d="M5.24012 1.85398C3.08242 3.39896 3.08242 3.39896 0 5.56193L4.62363 7.10691L10.4802 8.0339L12.0214 1.23598L8.01429 0L5.24012 1.85398Z" transform="translate(42.3584 0.928589)" fill="#08AAA2"/>
<path d="M5.24012 1.85398C3.08242 3.39896 3.08242 3.39896 0 5.56193L4.62363 7.10691L10.4802 8.0339L12.0214 1.23598L8.01429 0L5.24012 1.85398Z" transform="translate(25.7131 0.928589)" fill="#08AAA2"/>
<path d="M6.47308 0C3.93931 1.96182 2.39086 3.01529 0.616484 5.25293L0 7.10691L7.70605 5.25293V1.54498L6.47308 0Z" transform="translate(14 22.2494)" fill="#08AAA2"/>
<path d="M8.32254 10.7699L10.7885 1.19098L8.11531 0L0.395265 5.30136L0 7.3709L8.32254 10.7699Z" transform="translate(15.8494 8.38953)" fill="#08AAA2"/>
<path d="M12.6379 3.39896L4.00715 9.26988L0 2.78096L8.93902 0L12.6379 3.39896Z" transform="translate(97.8418 84.9756)" fill="#077C77"/>
<path d="M48.4871 8.28749L46.6426 8.64222C44.6162 9.0297 41.5627 7.78382 39.0413 5.54916L36.7172 3.48816C33.173 0.348146 28.8786 -0.630758 27.5309 1.36721L26.6561 2.68786C25.7006 4.12778 23.1521 4.07773 20.328 2.55808L17.7319 1.16884C13.7643 -0.947169 10.6294 -0.099288 11.0536 2.97831L11.3334 4.99359C11.6349 7.18746 10.0974 8.33693 7.53034 7.85489L5.17845 7.42106C1.57695 6.74993 0.236097 9.26515 2.32721 12.7889L3.69827 15.1002C5.17537 17.6087 4.97872 19.7414 3.16626 20.3872L1.51529 20.9742C-1.00859 21.8728 -0.300232 25.5517 3.04913 28.8512L5.23023 30.9956C7.61047 33.3304 8.76086 36.0118 8.06916 37.6495L7.43849 39.1401C6.47739 41.4211 9.11593 45.5629 13.0534 47.949L15.6297 49.5069C18.4335 51.2107 20.7268 53.9176 21.3038 56.2245L21.8365 58.3405C22.6385 61.5757 26.6654 65.3245 30.4253 66.3429L32.8814 67.0177C35.5526 67.742 38.5204 69.9316 40.2398 72.4586L41.8087 74.7624C44.2284 78.2967 48.8422 80.9368 51.6589 80.3726L53.5053 80.0166C55.5298 79.6303 58.5833 80.8756 61.1059 83.1115L63.4282 85.1706C66.9724 88.3107 71.2668 89.2902 72.6144 87.2922L73.4892 85.9722C74.4448 84.5304 76.9952 84.5817 79.8175 86.1013L82.4141 87.4906C86.3824 89.6078 89.516 88.7581 89.0931 85.6811L88.8126 83.6658C88.5093 81.4707 90.0492 80.3219 92.6163 80.8051L94.9682 81.2384C98.5678 81.9237 99.9087 79.4104 97.8194 75.8705L96.4489 73.5598C94.9706 71.0508 95.1673 68.9175 96.9798 68.2723L98.6313 67.6852C101.155 66.7866 100.446 63.1071 97.0963 59.8076L94.9151 57.6632C92.5361 55.3297 91.3852 52.6476 92.0769 51.0105L92.7063 49.5193C93.6692 47.2389 91.0294 43.0965 87.0926 40.7104L84.5157 39.1513C81.7125 37.4487 79.4186 34.7413 78.8422 32.4349L78.3101 30.3195C77.5075 27.0843 73.483 23.3356 69.7219 22.3171L67.2646 21.6411C64.5934 20.918 61.6244 18.7266 59.9062 16.2015L58.3373 13.8964C57.1481 12.1506 55.4145 10.6216 53.623 9.59084C51.8007 8.5421 49.918 8.00815 48.4871 8.28749Z" transform="translate(22.0144 0.316772)" fill="#08AAA2"/>
<path d="M30.9614 67.7101L52.2696 73.078L10.8517 5.42924L18.3427 0.127087C18.013 -0.212899 21.3823 0.0990752 23.4786 1.43044C26.3587 3.28318 27.7122 4.76865 29.7618 8.04109C31.4799 10.5662 34.4489 12.7576 37.1202 13.4807L39.5774 14.1567C43.3386 15.1752 47.363 18.9239 48.1657 22.1591L48.6977 24.2745C49.2741 26.5809 51.5681 29.2883 54.3712 30.9909L56.9481 32.55C60.885 34.9361 63.5248 39.0785 62.5618 41.3589L61.9324 42.8501C61.2407 44.4872 62.3917 47.1693 64.7707 49.5028L66.9519 51.6472C70.3018 54.9467 71.0108 58.6262 68.4869 59.5248L66.8353 60.1119C65.0229 60.7571 64.8262 62.8904 66.3045 65.3994L67.675 67.7101C69.7642 71.25 68.4234 73.7633 64.8237 73.078L62.4718 72.6448C59.9048 72.1615 58.3648 73.3103 58.6681 75.5054L58.9486 77.5207C59.3715 80.5977 56.2379 81.4474 52.2696 79.3302L49.673 77.941C46.8508 76.4213 44.3004 76.37 43.3448 77.8118L42.47 79.1318C41.1224 81.1298 36.8279 80.1503 33.2838 77.0103L30.9615 74.9511C28.4388 72.7152 25.3854 71.47 23.3608 71.8562L21.5145 72.2122C18.6977 72.7764 14.084 70.1363 11.6643 66.602L10.0953 64.2982C9.25341 63.0608 8.11219 61.9044 6.85303 60.9612C2.15711 59.1688 -0.982372 57.8403 0.2809 58.1825L2.73698 58.8574C4.10022 59.227 5.54068 59.9783 6.85303 60.9612C16.1338 64.5037 31.4939 69.8583 30.9614 67.7101Z" transform="translate(52.1587 8.47717)" fill="#077C77"/>
<path d="M11.7132 6.17992L3.69891 11.7419L0 7.10691L11.0967 0L12.3297 1.85398C13.0656 4.51863 12.8718 5.40706 11.7132 6.17992Z" transform="translate(108.014 75.0876)" fill="#08AAA2"/>
<path d="M11.405 3.39896L3.39066 8.96089L0 7.7249L12.0214 0C12.4535 1.64491 12.4422 2.44746 11.405 3.39896Z" transform="translate(109.863 64.2728)" fill="#08AAA2"/>
<path d="M13.8709 7.26394L5.8566 12.5169L0 7.26395L12.1074 0L13.2544 1.42423C13.8968 2.30654 14.2965 3.10781 14.4874 4.17398C14.7851 5.3219 14.5854 6.00551 13.8709 7.26394Z" transform="translate(100.308 43.7219)" fill="#08AAA2"/>
<path d="M8.93902 0.926988L0.616484 6.17992L0 5.25293L8.32254 0C8.6759 0.343729 8.81052 0.546752 8.93902 0.926988Z" transform="translate(104.931 44.806)" fill="#0DCEC4"/>
<path d="M0 4.63494L5.54836 0L9.55551 2.78096L3.69891 7.41591L0 4.63494Z" transform="translate(20.1648 10.1985)" fill="#077C77"/>
<path d="M7.70605 0L0 5.56193C1.92357 6.43917 2.80161 6.98025 4.00715 8.0339L12.0214 2.47197C10.3454 1.16656 9.42214 0.610656 7.70605 0Z" transform="translate(65.7847 8.96252)" fill="#08AAA2"/>
<path d="M10.7885 2.47197L2.46594 7.7249C1.64633 7.24251 1.09735 6.67075 0 5.25293L8.32254 0C9.22143 1.10568 9.75853 1.65309 10.7885 2.47197Z" transform="translate(94.1431 35.8452)" fill="#08AAA2"/>
<path d="M0.012776 1.34505C-0.167237 2.94008 1.57618 5.31934 3.90588 6.66039C6.2368 8.00143 8.27123 7.79627 8.45124 6.20123C8.63064 4.60619 6.88783 2.22629 4.5569 0.885249C2.22721 -0.455794 0.192789 -0.249991 0.012776 1.34505Z" transform="translate(72.5723 59.9888)" fill="#DEE7FF"/>
<path d="M48.4871 8.28749L46.6426 8.64222C44.6162 9.0297 41.5627 7.78382 39.0413 5.54916L36.7172 3.48816C33.173 0.348146 28.8786 -0.630758 27.5309 1.36721L26.6561 2.68786C25.7006 4.12778 23.1521 4.07773 20.328 2.55808L17.7319 1.16884C13.7643 -0.947169 10.6294 -0.099288 11.0536 2.97831L11.3334 4.99359C11.6349 7.18746 10.0974 8.33693 7.53034 7.85489L5.17845 7.42106C1.57695 6.74993 0.236097 9.26515 2.32721 12.7889L3.69827 15.1002C5.17537 17.6087 4.97872 19.7414 3.16626 20.3872L1.51529 20.9742C-1.00859 21.8728 -0.300232 25.5517 3.04913 28.8512L5.23023 30.9956C7.61047 33.3304 8.76086 36.0118 8.06916 37.6495L7.43849 39.1401C6.47739 41.4211 9.11593 45.5629 13.0534 47.949L15.6297 49.5069C18.4335 51.2107 20.7268 53.9176 21.3038 56.2245L21.8365 58.3405C22.6385 61.5757 26.6654 65.3245 30.4253 66.3429L32.8814 67.0177C35.5526 67.742 38.5204 69.9316 40.2398 72.4586L41.8087 74.7624C44.2284 78.2967 48.8422 80.9368 51.6589 80.3726L53.5053 80.0166C55.5298 79.6303 58.5833 80.8756 61.1059 83.1115L63.4282 85.1706C66.9724 88.3107 71.2668 89.2902 72.6144 87.2922L73.4892 85.9722C74.4448 84.5304 76.9952 84.5817 79.8175 86.1013L82.4141 87.4906C86.3824 89.6078 89.516 88.7581 89.0931 85.6811L88.8126 83.6658C88.5093 81.4707 90.0492 80.3219 92.6163 80.8051L94.9682 81.2384C98.5678 81.9237 99.9087 79.4104 97.8194 75.8705L96.4489 73.5598C94.9706 71.0508 95.1673 68.9175 96.9798 68.2723L98.6313 67.6852C101.155 66.7866 100.446 63.1071 97.0963 59.8076L94.9151 57.6632C92.5361 55.3297 91.3852 52.6476 92.0769 51.0105L92.7063 49.5193C93.6692 47.2389 91.0294 43.0965 87.0926 40.7104L84.5157 39.1513C81.7125 37.4487 79.4186 34.7413 78.8422 32.4349L78.3101 30.3195C77.5075 27.0843 73.483 23.3356 69.7219 22.3171L67.2646 21.6411C64.5934 20.918 61.6244 18.7266 59.9062 16.2015L58.3373 13.8964C57.1481 12.1506 55.4145 10.6216 53.623 9.59084C51.8007 8.5421 49.918 8.00815 48.4871 8.28749ZM27.1265 24.8756C27.5605 21.0249 32.4628 20.5305 38.0882 23.7682C43.713 27.0052 47.9113 32.7371 47.4773 36.5872C47.0433 40.4379 42.1428 40.9341 36.518 37.6971C30.8926 34.4594 26.6944 28.7115 27.1265 24.8756ZM33.7217 48.0417C32.7341 46.8397 32.71 45.6803 33.66 45.4591L62.8407 38.8114C63.7895 38.5895 65.3732 39.3954 66.3608 40.5974C67.3497 41.7987 67.3731 42.9581 66.4219 43.1793L37.2418 49.8258C36.7079 49.9507 35.9755 49.7517 35.2598 49.3401C34.7025 49.0194 34.1551 48.5682 33.7217 48.0417ZM52.6299 52.0333C53.0639 48.1838 57.9637 47.6876 63.5885 50.9246C69.2133 54.1617 73.4128 59.8954 72.9788 63.7449C72.5448 67.5956 67.6431 68.0912 62.0183 64.8542C56.3935 61.6171 52.1959 55.884 52.6299 52.0333Z" transform="translate(14 5.87878)" fill="#DEE7FF"/>
<path d="M0.0127681 1.34421C-0.167245 2.93863 1.57739 5.32039 3.90647 6.66082C6.23616 8.00124 8.27116 7.79482 8.45056 6.2004C8.63057 4.60598 6.88715 2.22548 4.55746 0.885058C2.22838 -0.455367 0.192165 -0.250206 0.0127681 1.34421Z" transform="translate(47.0913 32.8438)" fill="#DEE7FF"/>
<defs>
<filter id="filter0_f" x="0.849365" y="79.2517" width="110.451" height="79.7484" filterUnits="userSpaceOnUse" color-interpolation-filters="sRGB">
<feFlood flood-opacity="0" result="BackgroundImageFix"/>
<feBlend mode="normal" in="SourceGraphic" in2="BackgroundImageFix" result="shape"/>
<feGaussianBlur stdDeviation="7.5" result="effect1_foregroundBlur"/>
</filter>
</defs>
</svg>
