<svg width="307" height="204" viewBox="0 0 307 204" fill="none" xmlns="http://www.w3.org/2000/svg">
<g filter="url(#filter0_f)">
<path fill-rule="evenodd" clip-rule="evenodd" d="M4.08911 114.495L73.282 154.348C79.3318 157.832 86.7784 157.832 92.8276 154.348L262.476 56.6367C267.929 53.497 267.929 45.6268 262.476 42.4866L193.247 2.61303C187.196 -0.871963 179.749 -0.870818 173.698 2.61532L4.08797 100.346C-1.36313 103.486 -1.36256 111.356 4.08911 114.495Z" transform="translate(20.4344 26.3865)" fill="#BEBEBE"/>
</g>
<path fill-rule="evenodd" clip-rule="evenodd" d="M9.83976 1.09308L23.4382 8.92945C25.6634 10.2123 25.6629 13.4256 23.4365 14.7068C20.9094 16.1613 17.7996 16.1613 15.2725 14.7056L1.6695 6.87041C-0.556882 5.58866 -0.556309 2.37484 1.67007 1.09308L1.67408 1.09079C4.20177 -0.364265 7.31264 -0.363692 9.83976 1.09308Z" transform="translate(49.6908 119.68)" fill="white"/>
<path fill-rule="evenodd" clip-rule="evenodd" d="M9.83976 1.09308L23.4382 8.92945C25.664 10.2123 25.6629 13.425 23.4365 14.7068C20.9094 16.1613 17.7996 16.1607 15.2731 14.7056L1.6695 6.87041C-0.556882 5.58866 -0.556309 2.37484 1.67007 1.09308L1.67408 1.09079C4.20177 -0.364265 7.31264 -0.363692 9.83976 1.09308Z" transform="translate(49.3934 119.978)" fill="#DCBC83"/>
<path fill-rule="evenodd" clip-rule="evenodd" d="M0.00228622 1.09058L0 1.09172V6.87191L8.16169 11.5728V1.08943C5.63571 -0.363336 2.52826 -0.363335 0.00228622 1.09058Z" transform="translate(51.0681 119.978)" fill="#CAA369"/>
<path fill-rule="evenodd" clip-rule="evenodd" d="M21.7092 8.45988L8.68827 0.955813C6.47447 -0.31965 3.74952 -0.318509 1.53686 0.95867L1.53286 0.960959C0.131508 1.77028 -0.308165 3.41064 0.21041 4.74273C0.437393 4.99382 0.70497 5.21975 1.02286 5.40277L14.6264 13.238C16.8237 14.5032 19.4611 14.6673 21.7738 13.7327C23.7532 12.5271 23.7338 9.62667 21.7092 8.45988Z" transform="translate(50.0425 121.445)" fill="#FCDFAA"/>
<path fill-rule="evenodd" clip-rule="evenodd" d="M4.07663 114.152L73.0625 153.885C79.0938 157.359 86.518 157.359 92.5493 153.885L261.69 56.467C267.125 53.3362 267.125 45.4901 261.69 42.3592L192.668 2.60533C186.635 -0.869302 179.21 -0.868158 173.178 2.60705L4.07548 100.045C-1.35897 103.176 -1.3584 111.021 4.07663 114.152Z" transform="translate(17.8472 11.5349)" fill="#E0E4ED"/>
<path fill-rule="evenodd" clip-rule="evenodd" d="M17.1535 15.7071C18.2839 13.5239 18.9517 10.842 18.9517 7.94047C18.9517 4.9623 18.2496 2.21347 17.0649 0H1.88734C0.702105 2.21347 0 4.9623 0 7.94047C0 10.842 0.668374 13.5239 1.79872 15.7071H17.1535Z" transform="translate(265.539 49.0564)" fill="#E0E4ED"/>
<path fill-rule="evenodd" clip-rule="evenodd" d="M0 14.1651V6.16283C0.11149 5.94034 0.212112 5.71385 0.301877 5.48335L0.349898 5.51137C1.03371 3.75089 1.08746 1.78908 0.509422 0C1.27613 1.8886 1.72323 4.06432 1.73981 6.38647V6.39104V6.41907V6.42936V6.45224V6.47283V6.48599V6.5203V6.55405V6.56778V6.58722V6.61353V6.6204C1.72495 9.43099 1.08003 12.0294 0 14.1651Z" transform="translate(282.751 50.4767)" fill="#E0E4ED"/>
<path fill-rule="evenodd" clip-rule="evenodd" d="M1.79872 15.7076C0.668372 13.5245 0 10.8426 0 7.94047C0 4.96229 0.702105 2.21347 1.88734 0H17.0649C18.2496 2.21347 18.9517 4.96229 18.9517 7.94047C18.9517 10.8426 18.2839 13.5245 17.1535 15.7076H1.79872Z" transform="translate(17 106.799)" fill="#E0E4ED"/>
<path fill-rule="evenodd" clip-rule="evenodd" d="M63.8744 38.5341C63.8744 36.4813 62.7784 34.5853 61.0002 33.5609L3.24695 0.292496C1.80272 -0.5397 0 0.502978 0 2.17023V2.28061C0 4.33622 1.0989 6.23455 2.88103 7.25778L60.6298 40.4135C62.074 41.2423 63.8744 40.1996 63.8744 38.5341Z" transform="translate(23.2122 120.891)" fill="#C9CDD7"/>
<path fill-rule="evenodd" clip-rule="evenodd" d="M0.794728 0.0714792L8.50988 4.50414C8.88209 4.71805 9.11136 5.11499 9.11136 5.54396V5.75043C9.11136 6.15767 8.67168 6.41333 8.31835 6.21143L0.605481 1.81766C0.230986 1.60432 0 1.20623 0 0.775551V0.531904C0 0.123527 0.440816 -0.132137 0.794728 0.0714792Z" transform="translate(41.4148 132.588)" fill="#9D9D9D"/>
<path fill-rule="evenodd" clip-rule="evenodd" d="M0 7.05223L5.83753 3.69027L0.206969 6.94756C0.138931 6.98702 0.0697533 7.02191 0 7.05223ZM11.9592 0.148709C12.0341 0.0995203 12.1067 0.050332 12.1794 0V0.0211624L11.9592 0.148709Z" transform="translate(267.991 67.5992)" fill="#B29674"/>
<path fill-rule="evenodd" clip-rule="evenodd" d="M0 10.7619V2.79516C1.61919 2.36105 3.19607 1.71415 4.68718 0.855074L6.17258 0V7.96049L4.65116 8.83674C3.17091 9.68895 1.60661 10.3284 0 10.7619Z" transform="translate(105.709 156.583)" fill="#E0E4ED"/>
<path fill-rule="evenodd" clip-rule="evenodd" d="M3.94275 8.58936C2.62069 8.58936 1.29975 8.4402 0 8.15242V0C1.29473 0.28602 2.61232 0.42931 3.9288 0.42931H4.0069V8.58877C3.9857 8.58936 3.9645 8.58936 3.94275 8.58936Z" transform="translate(96.5656 159.48)" fill="#E0E4ED"/>
<path fill-rule="evenodd" clip-rule="evenodd" d="M1.65086 1.07248C1.78007 1.81431 1.52279 2.55156 1.07625 2.71914C0.629719 2.8873 0.1626 2.4223 0.0333851 1.68047C-0.0958297 0.939219 0.161457 0.201964 0.607992 0.0343809C1.0551 -0.133774 1.52165 0.331225 1.65086 1.07248Z" transform="translate(64.9349 145.7)" fill="#9D9D9D"/>
<path fill-rule="evenodd" clip-rule="evenodd" d="M1.65086 1.07285C1.78007 1.81468 1.52278 2.55136 1.07625 2.71951C0.629715 2.88767 0.1626 2.42266 0.0333854 1.68084C-0.0958294 0.939581 0.161453 0.20233 0.607988 0.0341749C1.05509 -0.133408 1.52164 0.331596 1.65086 1.07285Z" transform="translate(61.9281 143.977)" fill="#9D9D9D"/>
<path fill-rule="evenodd" clip-rule="evenodd" d="M1.65085 1.07305C1.78007 1.8143 1.52278 2.55155 1.07625 2.71971C0.629712 2.88729 0.163169 2.4223 0.0333823 1.68104C-0.0958325 0.939785 0.161451 0.202535 0.608557 0.0343796C1.05509 -0.133776 1.52164 0.331219 1.65085 1.07305Z" transform="translate(58.9214 144.963)" fill="#9D9D9D"/>
<path fill-rule="evenodd" clip-rule="evenodd" d="M1.65086 1.07306C1.78007 1.81431 1.52278 2.55156 1.07568 2.71972C0.629143 2.8873 0.1626 2.4223 0.0333854 1.68105C-0.0958294 0.939222 0.161453 0.201962 0.607988 0.0343791C1.05452 -0.133776 1.52164 0.331228 1.65086 1.07306Z" transform="translate(55.9152 140.532)" fill="#9D9D9D"/>
<path fill-rule="evenodd" clip-rule="evenodd" d="M4.07663 114.152L73.0625 153.885C79.0938 157.359 86.518 157.359 92.5493 153.885L261.69 56.4673C267.125 53.3364 267.125 45.4897 261.69 42.3594L192.668 2.60555C186.635 -0.869088 179.21 -0.868516 173.178 2.60726L4.07548 100.045C-1.35897 103.176 -1.3584 111.022 4.07663 114.152Z" transform="translate(17.8472 3.55359)" fill="#F0F4FF"/>
<path fill-rule="evenodd" clip-rule="evenodd" d="M0 11.2132C5.87813 14.2423 12.9135 14.1044 18.6801 10.7831L20.9454 9.47845L8.60823 0L0 11.2132Z" transform="translate(91.6357 146.66)" fill="#F0F4FF"/>
<path fill-rule="evenodd" clip-rule="evenodd" d="M23.591 1.68613L12.6534 0L4.06409 4.94914C0.347167 7.09112 -0.815194 11.4294 0.556427 14.9618L23.591 1.68613Z" transform="translate(17.8494 98.6492)" fill="#F0F4FF"/>
<path fill-rule="evenodd" clip-rule="evenodd" d="M3.84684 112.962L72.1134 152.28C78.0819 155.718 85.4283 155.718 91.3973 152.28L258.773 55.8781C264.152 52.7799 264.193 45.2529 258.41 40.4239L190.471 2.57809C184.502 -0.859936 177.154 -0.859364 171.185 2.57981L4.27908 96.9807C-1.16223 101.598 -1.53158 109.864 3.84684 112.962Z" transform="translate(19.4203 2.46289)" fill="#F0F4FF" fill-opacity="0.22"/>
<path fill-rule="evenodd" clip-rule="evenodd" d="M4.48421 113.204L71.3986 151.562C77.3671 154.983 84.7134 154.983 90.6825 151.562L256.706 56.39C262.686 52.9623 262.686 44.3721 256.706 40.9444L189.757 2.56608C183.787 -0.855933 176.439 -0.855361 170.47 2.5678L4.48307 97.7591C-1.49512 101.187 -1.49397 109.776 4.48421 113.204Z" transform="translate(20.1348 1.59351)" fill="#D1D7E7"/>
<path fill-rule="evenodd" clip-rule="evenodd" d="M4.0003 112.009L71.6911 150.996C77.6093 154.405 84.8939 154.405 90.8121 150.996L256.777 55.4072C262.111 52.3352 262.111 44.6361 256.777 41.5641L189.051 2.55614C183.131 -0.852715 175.846 -0.852143 169.927 2.55843L3.99916 98.1667C-1.33353 101.239 -1.33296 108.937 4.0003 112.009Z" transform="translate(20.3413 0.863281)" fill="#F0F4FF"/>
<path fill-rule="evenodd" clip-rule="evenodd" d="M0.381427 86.9246L83.8696 135.011C84.4265 135.331 85.1115 135.332 85.6683 135.011L233.859 49.6708C234.368 49.3774 234.368 48.6436 233.859 48.3502L150.329 0.240651C149.773 -0.0802169 149.087 -0.0802169 148.53 0.240651L0.381427 85.6046C-0.127428 85.898 -0.126856 86.6318 0.381427 86.9246Z" transform="translate(34.087 9.40454)" fill="#F4F7FF"/>
<path fill-rule="evenodd" clip-rule="evenodd" d="M0.377991 86.5569L148.527 1.19239C149.084 0.871518 149.769 0.871518 150.326 1.19239L233.856 49.3025C233.942 49.3517 234.007 49.4163 234.064 49.4861C234.345 49.1401 234.279 48.5938 233.856 48.3502L150.326 0.240651C149.769 -0.0802169 149.084 -0.0802169 148.527 0.240651L0.377991 85.6046C-0.0451018 85.8482 -0.110852 86.3944 0.169875 86.7405C0.226478 86.6707 0.292801 86.6061 0.377991 86.5569Z" transform="translate(34.094 9.40454)" fill="#D3D5DE"/>
<path fill-rule="evenodd" clip-rule="evenodd" d="M4.57932 1.14544C4.57932 1.77763 3.55426 2.2905 2.28984 2.2905C1.02505 2.2905 0 1.77763 0 1.14544C0 0.512868 1.02505 0 2.28984 0C3.55426 0 4.57932 0.512868 4.57932 1.14544Z" transform="translate(215.628 16.3242)" fill="#BEBEBE"/>
<path fill-rule="evenodd" clip-rule="evenodd" d="M1.79023 0C0.809626 0 0.0159571 0.393942 0 0.882555C0.419824 1.14583 1.06494 1.31484 1.79023 1.31484C2.51514 1.31484 3.16064 1.14583 3.58009 0.882555C3.56413 0.393942 2.77045 0 1.79023 0Z" transform="translate(216.127 17.2998)" fill="#9D9D9D"/>
<path fill-rule="evenodd" clip-rule="evenodd" d="M1.80939 0.201526L25.4734 13.6994C25.8532 13.9159 25.8539 14.4594 25.4744 14.6767L25.4599 14.6851C24.9879 14.9556 24.4063 14.9559 23.9342 14.6861L0.285101 1.1802C-0.0947353 0.963302 -0.0950944 0.420177 0.284389 0.202927C0.756093 -0.0672333 1.33733 -0.0675832 1.80939 0.201526Z" transform="translate(221.352 19.1874)" fill="#BEBEBE"/>
<path fill-rule="evenodd" clip-rule="evenodd" d="M23.7343 13.8389C24.2064 14.1087 24.7879 14.1084 25.26 13.8379L25.2745 13.8294C25.3066 13.8112 25.3321 13.7874 25.3589 13.7646C25.3321 13.7418 25.3059 13.718 25.2734 13.6994L1.60944 0.20157C1.13739 -0.0675398 0.556147 -0.0671894 0.0844428 0.202621C0.0522892 0.221192 0.0265 0.24502 0 0.267796C0.0268534 0.290572 0.0526483 0.3144 0.0851553 0.332971L23.7343 13.8389Z" transform="translate(221.552 20.0343)" fill="#9D9D9D"/>
<defs>
<filter id="filter0_f" x="0.434448" y="6.38647" width="306.566" height="196.961" filterUnits="userSpaceOnUse" color-interpolation-filters="sRGB">
<feFlood flood-opacity="0" result="BackgroundImageFix"/>
<feBlend mode="normal" in="SourceGraphic" in2="BackgroundImageFix" result="shape"/>
<feGaussianBlur stdDeviation="10" result="effect1_foregroundBlur"/>
</filter>
</defs>
</svg>
